
<svg xmlns="http://www.w3.org/2000/svg" viewBox="0 0 512 512" version="1.1"><path d="M 246.242 1.494 C 244.451 2.273, 241.486 4.053, 239.654 5.451 C 237.822 6.848, 235.012 10.356, 233.411 13.246 C 230.562 18.389, 230.493 18.864, 230.168 35.697 L 229.836 52.894 226.506 56.425 C 224.280 58.785, 222.814 61.640, 222.087 65.028 C 221.489 67.817, 221 74.301, 221 79.438 L 221 88.777 217.395 89.454 C 215.412 89.826, 210.928 91.014, 207.431 92.094 C 203.627 93.269, 200.456 94.939, 199.536 96.251 C 198.691 97.458, 198 99.730, 198 101.299 C 198 103.121, 199.058 105.212, 200.923 107.077 C 202.531 108.685, 204.893 109.995, 206.173 109.989 C 207.453 109.983, 210.750 109.287, 213.500 108.442 C 216.250 107.597, 221.584 106.248, 225.354 105.444 C 229.124 104.641, 237.466 103.527, 243.892 102.969 C 251.866 102.277, 259.328 102.284, 267.395 102.991 C 273.896 103.561, 282.654 104.727, 286.857 105.582 C 291.061 106.437, 299.193 108.695, 304.928 110.600 C 310.664 112.505, 320.564 116.764, 326.928 120.064 C 333.293 123.364, 342.482 129.038, 347.349 132.674 C 352.216 136.310, 359.915 143.001, 364.457 147.543 C 368.999 152.085, 375.690 159.784, 379.326 164.651 C 382.962 169.518, 388.636 178.707, 391.936 185.072 C 395.236 191.436, 399.495 201.336, 401.400 207.072 C 403.305 212.807, 405.563 220.939, 406.418 225.143 C 407.273 229.346, 408.431 238.008, 408.991 244.393 C 409.681 252.264, 409.681 259.736, 408.991 267.607 C 408.431 273.992, 407.273 282.654, 406.418 286.857 C 405.563 291.061, 403.349 299.062, 401.497 304.639 C 399.645 310.215, 395.886 319.215, 393.144 324.639 C 390.401 330.062, 385.984 337.722, 383.328 341.660 C 380.673 345.598, 375.422 352.421, 371.661 356.821 C 367.899 361.221, 361.221 367.899, 356.821 371.661 C 352.421 375.422, 345.598 380.673, 341.660 383.328 C 337.722 385.984, 330.062 390.401, 324.639 393.144 C 319.215 395.886, 310.215 399.645, 304.639 401.497 C 299.062 403.349, 291.006 405.575, 286.735 406.444 C 282.465 407.313, 273.802 408.445, 267.485 408.960 C 260.351 409.541, 251.649 409.541, 244.515 408.960 C 238.198 408.445, 229.535 407.313, 225.265 406.444 C 220.994 405.575, 212.935 403.348, 207.356 401.495 C 201.776 399.642, 193.001 396.013, 187.856 393.429 C 182.710 390.846, 174.900 386.331, 170.500 383.396 C 166.100 380.462, 159.043 375.009, 154.818 371.280 C 150.593 367.551, 144.166 361.125, 140.536 357 C 136.905 352.875, 131.535 345.900, 128.601 341.500 C 125.668 337.100, 121.154 329.290, 118.571 324.144 C 115.987 318.999, 112.358 310.224, 110.505 304.644 C 108.652 299.065, 106.437 291.061, 105.582 286.857 C 104.727 282.654, 103.560 273.887, 102.989 267.375 C 102.248 258.926, 102.273 251.949, 103.074 243.017 C 103.692 236.133, 105.458 225.493, 106.999 219.374 C 108.539 213.255, 111.468 204.030, 113.507 198.874 C 115.546 193.718, 119.251 185.900, 121.740 181.500 C 124.230 177.100, 128.334 170.575, 130.861 167 C 133.388 163.425, 138.492 157.053, 142.203 152.840 C 145.914 148.628, 153.372 141.625, 158.775 137.279 C 164.178 132.933, 172.433 127.060, 177.120 124.230 C 182.305 121.098, 186.105 118.065, 186.825 116.484 C 187.477 115.055, 187.722 112.674, 187.370 111.193 C 187.019 109.712, 186.070 107.738, 185.262 106.807 C 184.454 105.875, 182.526 104.835, 180.977 104.495 C 179.069 104.076, 176.774 104.585, 173.853 106.075 C 171.484 107.284, 167.821 109.414, 165.714 110.808 L 161.884 113.343 153.192 104.723 C 148.411 99.982, 143.233 95.630, 141.685 95.052 C 140.137 94.473, 137.009 94, 134.734 94 C 130.793 94, 130.030 93.439, 118.549 82.104 C 107.979 71.669, 105.833 70.011, 101.068 68.604 C 98.081 67.722, 94.450 67, 93 67 C 91.550 67, 87.976 67.709, 85.059 68.575 C 81.241 69.709, 78.408 71.497, 74.952 74.952 C 71.497 78.408, 69.709 81.241, 68.575 85.059 C 67.709 87.976, 67 91.550, 67 93 C 67 94.450, 67.722 98.081, 68.604 101.068 C 70.011 105.833, 71.669 107.979, 82.104 118.549 C 93.439 130.030, 94 130.793, 94 134.734 C 94 137.009, 94.473 140.137, 95.052 141.685 C 95.630 143.233, 99.965 148.393, 104.684 153.152 L 113.264 161.804 109.741 167.652 C 107.804 170.868, 104.402 177.138, 102.182 181.584 C 99.961 186.031, 96.593 194.131, 94.696 199.584 C 92.800 205.038, 90.671 212.088, 89.965 215.250 L 88.682 221 79.390 221 C 74.280 221, 67.817 221.489, 65.028 222.087 C 61.640 222.814, 58.785 224.280, 56.425 226.506 L 52.894 229.836 35.697 230.175 C 20.264 230.479, 18.076 230.739, 14.366 232.718 C 12.092 233.931, 8.761 236.393, 6.965 238.189 C 5.168 239.986, 2.876 243.266, 1.871 245.478 C 0.735 247.980, 0.036 251.875, 0.022 255.782 C 0.010 259.237, 0.652 263.625, 1.449 265.532 C 2.246 267.439, 4.044 270.502, 5.444 272.338 C 6.845 274.175, 10.356 276.988, 13.246 278.589 C 18.389 281.438, 18.864 281.507, 35.697 281.832 L 52.894 282.164 56.425 285.494 C 58.785 287.720, 61.640 289.186, 65.028 289.913 C 67.817 290.511, 74.280 291, 79.390 291 L 88.682 291 89.965 296.750 C 90.671 299.912, 92.800 306.962, 94.696 312.416 C 96.593 317.869, 99.961 325.969, 102.182 330.416 C 104.402 334.862, 107.804 341.132, 109.741 344.348 L 113.264 350.196 104.684 358.848 C 99.965 363.607, 95.630 368.767, 95.052 370.315 C 94.473 371.863, 94 375.021, 94 377.331 C 94 381.359, 93.523 382.008, 82.480 393.016 C 73.211 402.256, 70.574 405.533, 68.980 409.788 C 67.891 412.696, 67 416.551, 67 418.356 C 67 420.161, 67.709 424.024, 68.575 426.941 C 69.709 430.759, 71.497 433.592, 74.952 437.048 C 78.408 440.503, 81.241 442.291, 85.059 443.425 C 87.976 444.291, 91.839 445, 93.644 445 C 95.449 445, 99.304 444.109, 102.212 443.020 C 106.467 441.426, 109.744 438.789, 118.984 429.520 C 129.992 418.477, 130.641 418, 134.669 418 C 136.979 418, 140.137 417.527, 141.685 416.948 C 143.233 416.370, 148.393 412.035, 153.152 407.316 L 161.804 398.736 167.652 402.259 C 170.868 404.196, 177.138 407.598, 181.584 409.818 C 186.031 412.039, 194.131 415.407, 199.584 417.304 C 205.038 419.200, 212.088 421.329, 215.250 422.035 L 221 423.318 221 432.610 C 221 437.720, 221.489 444.183, 222.087 446.972 C 222.814 450.360, 224.280 453.215, 226.506 455.575 L 229.836 459.106 230.168 476.303 C 230.493 493.136, 230.562 493.611, 233.411 498.754 C 235.012 501.644, 237.825 505.155, 239.662 506.556 C 241.498 507.956, 244.561 509.754, 246.468 510.551 C 248.375 511.348, 252.665 512, 256 512 C 259.335 512, 263.625 511.348, 265.532 510.551 C 267.439 509.754, 270.502 507.956, 272.338 506.556 C 274.175 505.155, 276.988 501.644, 278.589 498.754 C 281.444 493.602, 281.507 493.162, 281.836 476.034 C 282.135 460.461, 282.370 458.429, 284.004 457.285 C 285.012 456.579, 286.849 454.363, 288.086 452.360 C 290.026 449.223, 290.400 446.959, 290.796 435.990 L 291.256 423.261 296.878 422.006 C 299.970 421.316, 306.962 419.200, 312.416 417.304 C 317.869 415.407, 325.969 412.039, 330.416 409.818 C 334.862 407.598, 341.132 404.196, 344.348 402.259 L 350.196 398.736 358.848 407.316 C 363.607 412.035, 368.767 416.370, 370.315 416.948 C 371.863 417.527, 374.991 418, 377.266 418 C 381.207 418, 381.970 418.561, 393.451 429.896 C 404.021 440.331, 406.167 441.989, 410.932 443.396 C 413.919 444.278, 417.550 445, 419 445 C 420.450 445, 424.024 444.291, 426.941 443.425 C 430.759 442.291, 433.592 440.503, 437.048 437.048 C 440.503 433.592, 442.291 430.759, 443.425 426.941 C 444.291 424.024, 445 420.161, 445 418.356 C 445 416.551, 444.109 412.696, 443.020 409.788 C 441.426 405.533, 438.789 402.256, 429.520 393.016 C 418.477 382.008, 418 381.359, 418 377.331 C 418 375.021, 417.527 371.863, 416.948 370.315 C 416.370 368.767, 412.035 363.607, 407.316 358.848 L 398.736 350.196 402.259 344.348 C 404.196 341.132, 407.598 334.862, 409.818 330.416 C 412.039 325.969, 415.407 317.869, 417.304 312.416 C 419.200 306.962, 421.329 299.913, 422.035 296.750 L 423.318 291 432.610 291 C 437.720 291, 444.183 290.511, 446.972 289.913 C 450.360 289.186, 453.215 287.720, 455.575 285.494 L 459.106 282.164 476.303 281.832 C 490.863 281.551, 494.099 281.203, 497.403 279.563 C 499.550 278.498, 502.825 276.109, 504.680 274.253 C 506.535 272.398, 509.166 268.573, 510.526 265.753 C 512.363 261.947, 513 258.984, 513 254.254 C 513 250.749, 512.598 248.130, 512.107 248.434 C 511.615 248.738, 510.959 247.977, 510.648 246.743 C 510.338 245.509, 508.738 242.671, 507.092 240.436 C 505.447 238.202, 501.716 235.052, 498.801 233.436 C 493.601 230.556, 493.172 230.494, 476.303 230.168 L 459.106 229.836 455.575 226.506 C 453.215 224.280, 450.360 222.814, 446.972 222.087 C 444.183 221.489, 437.720 221, 432.610 221 L 423.318 221 422.035 215.250 C 421.329 212.088, 419.200 205.038, 417.304 199.584 C 415.407 194.131, 412.039 186.031, 409.818 181.584 C 407.598 177.138, 404.196 170.868, 402.259 167.652 L 398.736 161.804 407.316 153.152 C 412.035 148.393, 416.370 143.233, 416.948 141.685 C 417.527 140.137, 418 136.979, 418 134.668 C 418 130.646, 418.475 129.995, 429.072 119.483 C 435.162 113.442, 441.037 106.782, 442.128 104.682 C 443.218 102.581, 444.364 98.719, 444.675 96.099 C 445.029 93.106, 444.650 89.309, 443.656 85.890 C 442.765 82.825, 440.527 78.640, 438.534 76.311 C 436.587 74.037, 432.887 71.155, 430.311 69.908 C 427.060 68.335, 423.771 67.631, 419.563 67.610 C 416.228 67.593, 411.700 68.195, 409.500 68.948 C 406.701 69.907, 401.874 73.872, 393.421 82.159 C 381.958 93.396, 381.133 94, 377.236 94 C 374.978 94, 371.863 94.473, 370.315 95.052 C 368.767 95.630, 363.607 99.965, 358.848 104.684 L 350.196 113.264 344.348 109.741 C 341.132 107.804, 334.862 104.402, 330.416 102.182 C 325.969 99.961, 317.869 96.593, 312.416 94.696 C 306.962 92.800, 299.970 90.684, 296.878 89.994 L 291.256 88.739 290.796 76.010 C 290.400 65.041, 290.026 62.777, 288.086 59.640 C 286.849 57.637, 285.003 55.415, 283.985 54.702 C 282.326 53.540, 282.101 51.593, 281.817 35.953 C 281.548 21.118, 281.209 17.914, 279.563 14.597 C 278.498 12.450, 276.069 9.135, 274.164 7.231 C 272.260 5.327, 268.857 2.931, 266.601 1.906 C 263.928 0.692, 260.237 0.050, 256 0.061 C 252.425 0.071, 248.034 0.715, 246.242 1.494 M 251.656 18.133 C 250.642 18.722, 249.180 20.719, 248.406 22.570 C 247.452 24.855, 247 29.962, 247 38.468 L 247 51 256 51 L 265 51 265 38.468 C 265 29.924, 264.550 24.858, 263.585 22.548 C 262.806 20.685, 261.261 18.675, 260.150 18.080 C 259.040 17.486, 257.089 17.014, 255.816 17.030 C 254.542 17.047, 252.670 17.543, 251.656 18.133 M 239 76.776 L 239 85.553 256 85.526 L 273 85.500 273 76.750 L 273 68 256 68 L 239 68 239 76.776 M 87.174 87.314 C 85.739 88.843, 85 90.905, 85 93.385 C 85 96.793, 85.922 98.083, 94.958 107.320 L 104.916 117.500 111.208 111.208 L 117.500 104.916 107.320 94.958 C 97.951 85.793, 96.830 85, 93.245 85 C 90.465 85, 88.726 85.663, 87.174 87.314 M 404.680 94.958 L 394.500 104.916 400.792 111.208 L 407.084 117.500 417.042 107.320 C 426.207 97.951, 427 96.830, 427 93.245 C 427 90.465, 426.337 88.726, 424.686 87.174 C 423.157 85.739, 421.095 85, 418.615 85 C 415.207 85, 413.917 85.922, 404.680 94.958 M 123.234 123.266 C 117.055 129.462, 112 134.988, 112 135.547 C 112 136.106, 114.588 139.071, 117.750 142.137 L 123.500 147.712 135.635 135.461 L 147.771 123.210 142.106 117.605 C 138.991 114.522, 135.998 112, 135.455 112 C 134.912 112, 129.412 117.070, 123.234 123.266 M 369.842 117.750 L 364.246 123.500 376.499 135.654 L 388.752 147.809 394.376 142.125 C 397.469 138.999, 400 135.998, 400 135.455 C 400 134.912, 394.930 129.412, 388.734 123.234 C 382.538 117.055, 377.012 112, 376.453 112 C 375.894 112, 372.919 114.588, 369.842 117.750 M 237 129.538 C 232.325 130.277, 224.452 132.063, 219.505 133.507 C 214.559 134.951, 206.801 137.872, 202.266 139.997 C 197.731 142.122, 190.078 146.422, 185.260 149.552 C 179.973 152.987, 172.287 159.456, 165.871 165.871 C 159.534 172.209, 153.022 179.932, 149.743 185 C 146.718 189.675, 142.814 196.348, 141.068 199.829 C 139.321 203.309, 136.369 210.734, 134.507 216.329 C 132.645 221.923, 130.420 231.283, 129.561 237.128 C 128.702 242.974, 128 251.466, 128 256 C 128 260.534, 128.702 269.026, 129.561 274.872 C 130.420 280.717, 132.645 290.077, 134.507 295.671 C 136.369 301.266, 139.321 308.691, 141.068 312.171 C 142.814 315.652, 146.718 322.325, 149.743 327 C 153.022 332.068, 159.534 339.791, 165.871 346.129 C 172.209 352.466, 179.932 358.978, 185 362.257 C 189.675 365.282, 196.325 369.174, 199.777 370.907 C 203.230 372.639, 209.980 375.364, 214.777 376.962 C 219.575 378.561, 227.325 380.669, 232 381.648 C 237.926 382.889, 245.042 383.434, 255.500 383.448 C 263.839 383.460, 273.830 382.869, 278 382.118 C 282.125 381.374, 290.043 379.285, 295.596 377.475 C 301.149 375.665, 308.574 372.738, 312.096 370.971 C 315.618 369.203, 322.325 365.282, 327 362.257 C 332.068 358.978, 339.791 352.466, 346.129 346.129 C 352.466 339.791, 358.978 332.068, 362.257 327 C 365.282 322.325, 369.174 315.675, 370.907 312.223 C 372.639 308.770, 375.364 302.020, 376.962 297.223 C 378.561 292.425, 380.673 284.675, 381.656 280 C 382.931 273.940, 383.444 267.051, 383.444 256 C 383.444 244.949, 382.931 238.060, 381.656 232 C 380.673 227.325, 378.561 219.575, 376.962 214.777 C 375.364 209.980, 372.639 203.230, 370.907 199.777 C 369.174 196.325, 365.282 189.675, 362.257 185 C 358.978 179.932, 352.466 172.209, 346.129 165.871 C 339.791 159.534, 332.068 153.022, 327 149.743 C 322.325 146.718, 315.652 142.814, 312.171 141.068 C 308.691 139.321, 301.266 136.369, 295.671 134.507 C 290.077 132.645, 280.717 130.420, 274.872 129.561 C 269.026 128.702, 260.026 128.044, 254.872 128.097 C 249.717 128.150, 241.675 128.799, 237 129.538 M 246.316 145.697 C 244.177 146.113, 244.164 146.208, 245.715 150.311 C 246.909 153.469, 247.411 159.667, 247.757 175.500 L 248.215 196.500 256 196.500 L 263.785 196.500 264.243 175.500 C 264.587 159.768, 265.094 153.461, 266.268 150.358 L 267.835 146.217 264.792 145.608 C 263.119 145.274, 258.769 145.061, 255.125 145.136 C 251.481 145.211, 247.517 145.463, 246.316 145.697 M 218 152.393 C 214.425 153.665, 209.419 155.785, 206.875 157.103 L 202.250 159.500 203.592 164 C 204.685 167.665, 207.260 170.817, 217.467 180.985 L 230 193.470 230 175.469 C 230 159.900, 229.751 157.005, 228.160 154.038 C 227.148 152.151, 225.910 150.488, 225.410 150.343 C 224.909 150.198, 221.575 151.120, 218 152.393 M 284.365 152.750 C 282.735 155.154, 282.466 157.889, 282.228 174.500 L 281.957 193.500 294.809 180.500 C 305.298 169.891, 307.853 166.733, 308.704 163.330 L 309.747 159.160 304.123 156.650 C 301.031 155.270, 296.121 153.209, 293.213 152.070 C 290.305 150.932, 287.544 150, 287.078 150 C 286.612 150, 285.391 151.238, 284.365 152.750 M 177.789 177.870 L 169.500 186.182 174.079 188.523 C 176.813 189.921, 184.529 196.741, 193.231 205.451 L 207.803 220.037 213.709 214.131 L 219.616 208.224 205.958 194.362 C 198.157 186.444, 190.966 178.154, 189.189 175.030 L 186.077 169.559 177.789 177.870 M 322.899 174.708 C 321.484 177.632, 315.323 184.828, 306.525 193.834 L 292.421 208.273 297.960 213.912 L 303.500 219.550 318.061 205.456 C 327.011 196.793, 334.430 190.486, 337.311 189.091 C 339.890 187.843, 342 186.593, 342 186.314 C 342 186.034, 338.962 182.657, 335.250 178.808 C 331.538 174.959, 327.750 171.407, 326.834 170.915 C 325.486 170.190, 324.737 170.912, 322.899 174.708 M 156.672 207.828 C 155.280 210.948, 153.188 215.933, 152.023 218.906 C 150.859 221.880, 150.111 224.846, 150.361 225.499 C 150.612 226.151, 152.388 227.431, 154.309 228.342 C 157.156 229.693, 161.103 230, 175.646 230 L 193.490 230 180.956 217.466 C 170.671 207.181, 167.594 204.682, 163.812 203.544 L 159.203 202.157 156.672 207.828 M 349.500 203.006 C 347.850 203.362, 345.600 204.151, 344.500 204.760 C 343.400 205.369, 337.107 211.297, 330.516 217.934 L 318.531 230 336.365 230 C 350.898 230, 354.844 229.693, 357.691 228.342 C 359.612 227.431, 361.390 226.148, 361.641 225.493 C 361.893 224.837, 360.710 220.805, 359.013 216.533 C 357.316 212.261, 355.156 207.324, 354.214 205.562 C 352.704 202.739, 352.144 202.435, 349.500 203.006 M 248.108 214.082 C 245.693 214.556, 240.860 216.281, 237.368 217.915 C 233.713 219.625, 228.868 223.037, 225.952 225.952 C 223.040 228.865, 219.625 233.713, 217.920 237.357 C 216.288 240.844, 214.466 246.465, 213.870 249.848 C 213.092 254.266, 213.092 257.734, 213.870 262.152 C 214.466 265.535, 216.288 271.156, 217.920 274.643 C 219.625 278.287, 223.040 283.135, 225.952 286.048 C 228.865 288.960, 233.713 292.375, 237.357 294.080 C 240.844 295.712, 246.465 297.534, 249.848 298.130 C 254.266 298.908, 257.734 298.908, 262.152 298.130 C 265.535 297.534, 271.156 295.712, 274.643 294.080 C 278.287 292.375, 283.135 288.960, 286.048 286.048 C 288.960 283.135, 292.375 278.287, 294.080 274.643 C 295.712 271.156, 297.534 265.535, 298.130 262.152 C 298.908 257.734, 298.908 254.266, 298.130 249.848 C 297.534 246.465, 295.712 240.844, 294.080 237.357 C 292.375 233.713, 288.960 228.865, 286.048 225.952 C 283.165 223.070, 278.290 219.627, 274.736 217.964 C 271.302 216.357, 266.069 214.582, 263.109 214.021 C 260.149 213.459, 256.551 213.049, 255.114 213.110 C 253.676 213.170, 250.524 213.607, 248.108 214.082 M 68 256 L 68 273 76.750 273 L 85.500 273 85.526 256 L 85.553 239 76.776 239 L 68 239 68 256 M 426.500 256 L 426.500 273 435.250 273 L 444 273 444 256 L 444 239 435.250 239 L 426.500 239 426.500 256 M 145.608 247.208 C 145.274 248.881, 145 252.838, 145 256 C 145 259.163, 145.274 263.119, 145.608 264.792 L 146.217 267.835 150.358 266.268 C 153.461 265.094, 159.768 264.587, 175.500 264.243 L 196.500 263.785 196.500 256 L 196.500 248.215 175.500 247.757 C 159.768 247.413, 153.461 246.906, 150.358 245.732 L 146.217 244.165 145.608 247.208 M 361.500 245.782 C 358.581 246.882, 351.826 247.414, 336.500 247.752 L 315.500 248.215 315.500 256 L 315.500 263.785 336.500 264.243 C 352.232 264.587, 358.539 265.094, 361.642 266.268 L 365.783 267.835 366.392 264.792 C 366.726 263.119, 366.955 258.769, 366.900 255.125 C 366.845 251.481, 366.508 247.549, 366.150 246.388 C 365.525 244.356, 365.347 244.333, 361.500 245.782 M 22.011 248.752 C 19.982 249.768, 18.122 251.651, 17.568 253.250 C 16.963 254.994, 16.963 257.006, 17.568 258.750 C 18.122 260.349, 19.982 262.232, 22.011 263.248 C 24.786 264.639, 28.111 264.997, 38.250 264.998 L 51 265 51 256 L 51 247 38.250 247.002 C 28.111 247.003, 24.786 247.361, 22.011 248.752 M 461 256 L 461 265 473.750 264.998 C 483.889 264.997, 487.214 264.639, 489.989 263.248 C 492.018 262.232, 493.878 260.349, 494.432 258.750 C 495.037 257.006, 495.037 254.994, 494.432 253.250 C 493.878 251.651, 492.018 249.768, 489.989 248.752 C 487.214 247.361, 483.889 247.003, 473.750 247.002 L 461 247 461 256 M 154.500 283.569 C 152.850 284.425, 151.093 285.526, 150.596 286.016 C 150.060 286.546, 150.408 288.854, 151.456 291.704 C 152.426 294.342, 154.560 299.480, 156.198 303.121 L 159.177 309.742 163.339 308.702 C 166.724 307.855, 169.923 305.274, 180.500 294.851 L 193.500 282.040 175.500 282.026 C 161.142 282.015, 156.893 282.327, 154.500 283.569 M 331.015 294.533 C 341.189 304.746, 344.333 307.314, 348 308.405 C 352.416 309.719, 352.526 309.696, 353.898 307.150 C 354.667 305.723, 356.568 301.473, 358.122 297.704 C 359.676 293.936, 361.072 289.712, 361.224 288.319 C 361.442 286.319, 360.765 285.386, 358.016 283.893 C 354.964 282.235, 352.296 282, 336.531 282 L 318.530 282 331.015 294.533 M 193.795 306.597 C 184.907 315.324, 177.448 321.756, 174.421 323.303 L 169.500 325.818 177.793 334.133 L 186.085 342.449 188.598 337.974 C 189.980 335.513, 197.646 326.934, 205.634 318.909 L 220.158 304.318 214.202 298.362 L 208.247 292.407 193.795 306.597 M 297.682 298.356 L 291.864 304.282 306.892 319.424 C 316.010 328.610, 322.535 336.036, 323.483 338.306 C 324.763 341.369, 325.359 341.878, 326.773 341.118 C 327.723 340.607, 331.538 337.041, 335.250 333.192 C 338.962 329.343, 342 325.966, 342 325.686 C 342 325.407, 339.863 324.147, 337.250 322.887 C 334.267 321.448, 327.107 315.358, 318 306.514 L 303.500 292.431 297.682 298.356 M 247.757 336.500 C 247.413 352.232, 246.906 358.539, 245.732 361.642 L 244.165 365.783 247.208 366.392 C 248.881 366.726, 252.838 367, 256 367 C 259.163 367, 263.119 366.726, 264.792 366.392 L 267.835 365.783 266.268 361.642 C 265.094 358.539, 264.587 352.232, 264.243 336.500 L 263.785 315.500 256 315.500 L 248.215 315.500 247.757 336.500 M 217.211 331.286 C 207.192 341.332, 204.668 344.453, 203.543 348.193 L 202.162 352.779 208.831 355.807 C 212.499 357.472, 217.729 359.573, 220.453 360.474 C 225.353 362.097, 225.424 362.090, 227.181 359.807 C 228.158 358.538, 229.211 356.150, 229.523 354.500 C 229.835 352.850, 229.957 344.180, 229.795 335.233 L 229.500 318.966 217.211 331.286 M 282 336.364 C 282 350.898, 282.307 354.844, 283.658 357.691 C 284.569 359.612, 285.829 361.381, 286.458 361.622 C 287.086 361.863, 290.652 360.912, 294.381 359.509 C 298.109 358.105, 303.093 355.954, 305.455 354.728 L 309.750 352.500 308.408 348 C 307.315 344.335, 304.740 341.183, 294.533 331.015 L 282 318.530 282 336.364 M 117.624 369.875 C 114.531 373.001, 112 376.002, 112 376.545 C 112 377.088, 117.070 382.588, 123.266 388.766 C 129.462 394.945, 134.988 400, 135.547 400 C 136.106 400, 139.081 397.413, 142.158 394.250 L 147.754 388.500 135.501 376.346 L 123.248 364.191 117.624 369.875 M 376.346 376.499 L 364.191 388.752 369.875 394.376 C 373.001 397.469, 376.002 400, 376.545 400 C 377.088 400, 382.588 394.930, 388.766 388.734 C 394.945 382.538, 400 377.012, 400 376.453 C 400 375.894, 397.413 372.919, 394.250 369.842 L 388.500 364.246 376.346 376.499 M 94.651 404.946 C 85.817 414.050, 85 415.220, 85 418.772 C 85 421.534, 85.666 423.278, 87.314 424.826 C 88.843 426.261, 90.905 427, 93.385 427 C 96.792 427, 98.086 426.077, 107.320 417.053 L 117.500 407.105 111.531 401.053 C 108.249 397.724, 105.279 395, 104.932 395 C 104.586 395, 99.959 399.476, 94.651 404.946 M 400.469 401.053 L 394.500 407.105 404.680 417.053 C 414.046 426.205, 415.171 427, 418.755 427 C 421.535 427, 423.274 426.337, 424.826 424.686 C 426.258 423.161, 427 421.095, 427 418.631 C 427 415.257, 426.057 413.920, 417.349 404.946 C 412.041 399.476, 407.414 395, 407.068 395 C 406.721 395, 403.751 397.724, 400.469 401.053 M 239 435.250 L 239 444 256 444 L 273 444 273 435.250 L 273 426.500 256 426.500 L 239 426.500 239 435.250 M 247.002 473.750 C 247.003 483.889, 247.361 487.214, 248.752 489.989 C 249.768 492.018, 251.651 493.878, 253.250 494.432 C 254.994 495.037, 257.006 495.037, 258.750 494.432 C 260.349 493.878, 262.232 492.018, 263.248 489.989 C 264.639 487.214, 264.997 483.889, 264.998 473.750 L 265 461 256 461 L 247 461 247.002 473.750" stroke="none" fill="#252424" fill-rule="evenodd"/><path d="M 251.656 18.133 C 250.642 18.722, 249.180 20.719, 248.406 22.570 C 247.452 24.855, 247 29.962, 247 38.468 L 247 51 256 51 L 265 51 265 38.468 C 265 29.924, 264.550 24.858, 263.585 22.548 C 262.806 20.685, 261.261 18.675, 260.150 18.080 C 259.040 17.486, 257.089 17.014, 255.816 17.030 C 254.542 17.047, 252.670 17.543, 251.656 18.133 M 239 76.776 L 239 85.553 256 85.526 L 273 85.500 273 76.750 L 273 68 256 68 L 239 68 239 76.776 M 87.174 87.314 C 85.739 88.843, 85 90.905, 85 93.385 C 85 96.793, 85.922 98.083, 94.958 107.320 L 104.916 117.500 111.208 111.208 L 117.500 104.916 107.320 94.958 C 97.951 85.793, 96.830 85, 93.245 85 C 90.465 85, 88.726 85.663, 87.174 87.314 M 404.680 94.958 L 394.500 104.916 400.792 111.208 L 407.084 117.500 417.042 107.320 C 426.207 97.951, 427 96.830, 427 93.245 C 427 90.465, 426.337 88.726, 424.686 87.174 C 423.157 85.739, 421.095 85, 418.615 85 C 415.207 85, 413.917 85.922, 404.680 94.958 M 241.842 103.050 C 237.080 103.473, 230.555 104.346, 227.342 104.989 C 224.129 105.631, 218.526 107.022, 214.892 108.078 C 211.258 109.135, 207.286 110, 206.065 110 C 204.845 110, 202.511 108.665, 200.878 107.032 L 197.911 104.065 192.345 106.526 C 187.341 108.739, 186.842 109.234, 187.395 111.436 C 187.733 112.783, 187.477 115.055, 186.825 116.484 C 186.105 118.065, 182.305 121.098, 177.120 124.230 C 172.433 127.060, 164.178 132.933, 158.775 137.279 C 153.372 141.625, 145.914 148.628, 142.203 152.840 C 138.492 157.053, 133.388 163.425, 130.861 167 C 128.334 170.575, 124.230 177.100, 121.740 181.500 C 119.251 185.900, 115.546 193.718, 113.507 198.874 C 111.468 204.030, 108.539 213.255, 106.999 219.374 C 105.458 225.493, 103.692 236.133, 103.074 243.017 C 102.273 251.949, 102.248 258.926, 102.989 267.375 C 103.560 273.887, 104.727 282.654, 105.582 286.857 C 106.437 291.061, 108.652 299.065, 110.505 304.644 C 112.358 310.224, 115.987 318.999, 118.571 324.144 C 121.154 329.290, 125.668 337.100, 128.601 341.500 C 131.535 345.900, 136.905 352.875, 140.536 357 C 144.166 361.125, 150.593 367.551, 154.818 371.280 C 159.043 375.009, 166.100 380.462, 170.500 383.396 C 174.900 386.331, 182.710 390.846, 187.856 393.429 C 193.001 396.013, 201.776 399.642, 207.356 401.495 C 212.935 403.348, 220.994 405.575, 225.265 406.444 C 229.535 407.313, 238.198 408.445, 244.515 408.960 C 251.649 409.541, 260.351 409.541, 267.485 408.960 C 273.802 408.445, 282.465 407.313, 286.735 406.444 C 291.006 405.575, 299.062 403.349, 304.639 401.497 C 310.215 399.645, 319.215 395.886, 324.639 393.144 C 330.062 390.401, 337.722 385.984, 341.660 383.328 C 345.598 380.673, 352.421 375.422, 356.821 371.661 C 361.221 367.899, 367.899 361.221, 371.661 356.821 C 375.422 352.421, 380.673 345.598, 383.328 341.660 C 385.984 337.722, 390.401 330.062, 393.144 324.639 C 395.886 319.215, 399.645 310.215, 401.497 304.639 C 403.349 299.062, 405.563 291.061, 406.418 286.857 C 407.273 282.654, 408.431 273.992, 408.991 267.607 C 409.681 259.736, 409.681 252.264, 408.991 244.393 C 408.431 238.008, 407.273 229.346, 406.418 225.143 C 405.563 220.939, 403.305 212.807, 401.400 207.072 C 399.495 201.336, 395.236 191.436, 391.936 185.072 C 388.636 178.707, 382.962 169.518, 379.326 164.651 C 375.690 159.784, 368.999 152.085, 364.457 147.543 C 359.915 143.001, 352.216 136.310, 347.349 132.674 C 342.482 129.038, 333.293 123.364, 326.928 120.064 C 320.564 116.764, 310.664 112.505, 304.928 110.600 C 299.193 108.695, 291.062 106.437, 286.860 105.582 C 282.659 104.727, 274.109 103.576, 267.860 103.023 C 261.612 102.470, 255.150 102.076, 253.500 102.148 C 251.850 102.220, 246.604 102.626, 241.842 103.050 M 123.234 123.266 C 117.055 129.462, 112 134.988, 112 135.547 C 112 136.106, 114.588 139.071, 117.750 142.137 L 123.500 147.712 135.635 135.461 L 147.771 123.210 142.106 117.605 C 138.991 114.522, 135.998 112, 135.455 112 C 134.912 112, 129.412 117.070, 123.234 123.266 M 369.842 117.750 L 364.246 123.500 376.499 135.654 L 388.752 147.809 394.376 142.125 C 397.469 138.999, 400 135.998, 400 135.455 C 400 134.912, 394.930 129.412, 388.734 123.234 C 382.538 117.055, 377.012 112, 376.453 112 C 375.894 112, 372.919 114.588, 369.842 117.750 M 237 129.538 C 232.325 130.277, 224.452 132.063, 219.505 133.507 C 214.559 134.951, 206.801 137.872, 202.266 139.997 C 197.731 142.122, 190.078 146.422, 185.260 149.552 C 179.973 152.987, 172.287 159.456, 165.871 165.871 C 159.534 172.209, 153.022 179.932, 149.743 185 C 146.718 189.675, 142.814 196.348, 141.068 199.829 C 139.321 203.309, 136.369 210.734, 134.507 216.329 C 132.645 221.923, 130.420 231.283, 129.561 237.128 C 128.702 242.974, 128 251.466, 128 256 C 128 260.534, 128.702 269.026, 129.561 274.872 C 130.420 280.717, 132.645 290.077, 134.507 295.671 C 136.369 301.266, 139.321 308.691, 141.068 312.171 C 142.814 315.652, 146.718 322.325, 149.743 327 C 153.022 332.068, 159.534 339.791, 165.871 346.129 C 172.209 352.466, 179.932 358.978, 185 362.257 C 189.675 365.282, 196.325 369.174, 199.777 370.907 C 203.230 372.639, 209.980 375.364, 214.777 376.962 C 219.575 378.561, 227.325 380.669, 232 381.648 C 237.926 382.889, 245.042 383.434, 255.500 383.448 C 263.839 383.460, 273.830 382.869, 278 382.118 C 282.125 381.374, 290.043 379.285, 295.596 377.475 C 301.149 375.665, 308.574 372.738, 312.096 370.971 C 315.618 369.203, 322.325 365.282, 327 362.257 C 332.068 358.978, 339.791 352.466, 346.129 346.129 C 352.466 339.791, 358.978 332.068, 362.257 327 C 365.282 322.325, 369.174 315.675, 370.907 312.223 C 372.639 308.770, 375.364 302.020, 376.962 297.223 C 378.561 292.425, 380.673 284.675, 381.656 280 C 382.931 273.940, 383.444 267.051, 383.444 256 C 383.444 244.949, 382.931 238.060, 381.656 232 C 380.673 227.325, 378.561 219.575, 376.962 214.777 C 375.364 209.980, 372.639 203.230, 370.907 199.777 C 369.174 196.325, 365.282 189.675, 362.257 185 C 358.978 179.932, 352.466 172.209, 346.129 165.871 C 339.791 159.534, 332.068 153.022, 327 149.743 C 322.325 146.718, 315.652 142.814, 312.171 141.068 C 308.691 139.321, 301.266 136.369, 295.671 134.507 C 290.077 132.645, 280.717 130.420, 274.872 129.561 C 269.026 128.702, 260.026 128.044, 254.872 128.097 C 249.717 128.150, 241.675 128.799, 237 129.538 M 246.316 145.697 C 244.177 146.113, 244.164 146.208, 245.715 150.311 C 246.909 153.469, 247.411 159.667, 247.757 175.500 L 248.215 196.500 256 196.500 L 263.785 196.500 264.243 175.500 C 264.587 159.768, 265.094 153.461, 266.268 150.358 L 267.835 146.217 264.792 145.608 C 263.119 145.274, 258.769 145.061, 255.125 145.136 C 251.481 145.211, 247.517 145.463, 246.316 145.697 M 177.789 177.870 L 169.500 186.182 174.079 188.523 C 176.813 189.921, 184.529 196.741, 193.231 205.451 L 207.803 220.037 213.709 214.131 L 219.616 208.224 205.958 194.362 C 198.157 186.444, 190.966 178.154, 189.189 175.030 L 186.077 169.559 177.789 177.870 M 322.899 174.708 C 321.484 177.632, 315.323 184.828, 306.525 193.834 L 292.421 208.273 297.960 213.912 L 303.500 219.550 318.061 205.456 C 327.011 196.793, 334.430 190.486, 337.311 189.091 C 339.890 187.843, 342 186.593, 342 186.314 C 342 186.034, 338.962 182.657, 335.250 178.808 C 331.538 174.959, 327.750 171.407, 326.834 170.915 C 325.486 170.190, 324.737 170.912, 322.899 174.708 M 248.108 214.082 C 245.693 214.556, 240.860 216.281, 237.368 217.915 C 233.713 219.625, 228.868 223.037, 225.952 225.952 C 223.040 228.865, 219.625 233.713, 217.920 237.357 C 216.288 240.844, 214.466 246.465, 213.870 249.848 C 213.092 254.266, 213.092 257.734, 213.870 262.152 C 214.466 265.535, 216.288 271.156, 217.920 274.643 C 219.625 278.287, 223.040 283.135, 225.952 286.048 C 228.865 288.960, 233.713 292.375, 237.357 294.080 C 240.844 295.712, 246.465 297.534, 249.848 298.130 C 254.266 298.908, 257.734 298.908, 262.152 298.130 C 265.535 297.534, 271.156 295.712, 274.643 294.080 C 278.287 292.375, 283.135 288.960, 286.048 286.048 C 288.960 283.135, 292.375 278.287, 294.080 274.643 C 295.712 271.156, 297.534 265.535, 298.130 262.152 C 298.908 257.734, 298.908 254.266, 298.130 249.848 C 297.534 246.465, 295.712 240.844, 294.080 237.357 C 292.375 233.713, 288.960 228.865, 286.048 225.952 C 283.165 223.070, 278.290 219.627, 274.736 217.964 C 271.302 216.357, 266.069 214.582, 263.109 214.021 C 260.149 213.459, 256.551 213.049, 255.114 213.110 C 253.676 213.170, 250.524 213.607, 248.108 214.082 M 68 256 L 68 273 76.750 273 L 85.500 273 85.526 256 L 85.553 239 76.776 239 L 68 239 68 256 M 426.500 256 L 426.500 273 435.250 273 L 444 273 444 256 L 444 239 435.250 239 L 426.500 239 426.500 256 M 145.608 247.208 C 145.274 248.881, 145 252.838, 145 256 C 145 259.163, 145.274 263.119, 145.608 264.792 L 146.217 267.835 150.358 266.268 C 153.461 265.094, 159.768 264.587, 175.500 264.243 L 196.500 263.785 196.500 256 L 196.500 248.215 175.500 247.757 C 159.768 247.413, 153.461 246.906, 150.358 245.732 L 146.217 244.165 145.608 247.208 M 361.500 245.782 C 358.581 246.882, 351.826 247.414, 336.500 247.752 L 315.500 248.215 315.500 256 L 315.500 263.785 336.500 264.243 C 352.232 264.587, 358.539 265.094, 361.642 266.268 L 365.783 267.835 366.392 264.792 C 366.726 263.119, 366.955 258.769, 366.900 255.125 C 366.845 251.481, 366.508 247.549, 366.150 246.388 C 365.525 244.356, 365.347 244.333, 361.500 245.782 M 22.011 248.752 C 19.982 249.768, 18.122 251.651, 17.568 253.250 C 16.963 254.994, 16.963 257.006, 17.568 258.750 C 18.122 260.349, 19.982 262.232, 22.011 263.248 C 24.786 264.639, 28.111 264.997, 38.250 264.998 L 51 265 51 256 L 51 247 38.250 247.002 C 28.111 247.003, 24.786 247.361, 22.011 248.752 M 461 256 L 461 265 473.750 264.998 C 483.889 264.997, 487.214 264.639, 489.989 263.248 C 492.018 262.232, 493.878 260.349, 494.432 258.750 C 495.037 257.006, 495.037 254.994, 494.432 253.250 C 493.878 251.651, 492.018 249.768, 489.989 248.752 C 487.214 247.361, 483.889 247.003, 473.750 247.002 L 461 247 461 256 M 193.795 306.597 C 184.907 315.324, 177.448 321.756, 174.421 323.303 L 169.500 325.818 177.793 334.133 L 186.085 342.449 188.598 337.974 C 189.980 335.513, 197.646 326.934, 205.634 318.909 L 220.158 304.318 214.202 298.362 L 208.247 292.407 193.795 306.597 M 297.682 298.356 L 291.864 304.282 306.892 319.424 C 316.010 328.610, 322.535 336.036, 323.483 338.306 C 324.763 341.369, 325.359 341.878, 326.773 341.118 C 327.723 340.607, 331.538 337.041, 335.250 333.192 C 338.962 329.343, 342 325.966, 342 325.686 C 342 325.407, 339.863 324.147, 337.250 322.887 C 334.267 321.448, 327.107 315.358, 318 306.514 L 303.500 292.431 297.682 298.356 M 247.757 336.500 C 247.413 352.232, 246.906 358.539, 245.732 361.642 L 244.165 365.783 247.208 366.392 C 248.881 366.726, 252.838 367, 256 367 C 259.163 367, 263.119 366.726, 264.792 366.392 L 267.835 365.783 266.268 361.642 C 265.094 358.539, 264.587 352.232, 264.243 336.500 L 263.785 315.500 256 315.500 L 248.215 315.500 247.757 336.500 M 117.624 369.875 C 114.531 373.001, 112 376.002, 112 376.545 C 112 377.088, 117.070 382.588, 123.266 388.766 C 129.462 394.945, 134.988 400, 135.547 400 C 136.106 400, 139.081 397.413, 142.158 394.250 L 147.754 388.500 135.501 376.346 L 123.248 364.191 117.624 369.875 M 376.346 376.499 L 364.191 388.752 369.875 394.376 C 373.001 397.469, 376.002 400, 376.545 400 C 377.088 400, 382.588 394.930, 388.766 388.734 C 394.945 382.538, 400 377.012, 400 376.453 C 400 375.894, 397.413 372.919, 394.250 369.842 L 388.500 364.246 376.346 376.499 M 94.651 404.946 C 85.817 414.050, 85 415.220, 85 418.772 C 85 421.534, 85.666 423.278, 87.314 424.826 C 88.843 426.261, 90.905 427, 93.385 427 C 96.792 427, 98.086 426.077, 107.320 417.053 L 117.500 407.105 111.531 401.053 C 108.249 397.724, 105.279 395, 104.932 395 C 104.586 395, 99.959 399.476, 94.651 404.946 M 400.469 401.053 L 394.500 407.105 404.680 417.053 C 414.046 426.205, 415.171 427, 418.755 427 C 421.535 427, 423.274 426.337, 424.826 424.686 C 426.258 423.161, 427 421.095, 427 418.631 C 427 415.257, 426.057 413.920, 417.349 404.946 C 412.041 399.476, 407.414 395, 407.068 395 C 406.721 395, 403.751 397.724, 400.469 401.053 M 239 435.250 L 239 444 256 444 L 273 444 273 435.250 L 273 426.500 256 426.500 L 239 426.500 239 435.250 M 247.002 473.750 C 247.003 483.889, 247.361 487.214, 248.752 489.989 C 249.768 492.018, 251.651 493.878, 253.250 494.432 C 254.994 495.037, 257.006 495.037, 258.750 494.432 C 260.349 493.878, 262.232 492.018, 263.248 489.989 C 264.639 487.214, 264.997 483.889, 264.998 473.750 L 265 461 256 461 L 247 461 247.002 473.750" stroke="none" fill="#e18c4f" fill-rule="evenodd"/></svg>