<svg xmlns="http://www.w3.org/2000/svg" version="1.1" xmlns:xlink="http://www.w3.org/1999/xlink" xmlns:svgjs="http://svgjs.com/svgjs" width="1440" height="884" preserveAspectRatio="none" viewBox="0 0 1440 884"><g mask="url(&quot;#SvgjsMask1011&quot;)" fill="none"><rect width="1440" height="884" x="0" y="0" fill="#0e2a47"></rect><path d="M 0,50 C 72,103.6 216,300.4 360,318 C 504,335.6 576,141.4 720,138 C 864,134.6 936,306 1080,301 C 1224,296 1368,150.6 1440,113L1440 884L0 884z" fill="#184a7e"></path><path d="M 0,775 C 96,734.6 288,554 480,573 C 672,592 768,856.2 960,870 C 1152,883.8 1344,687.6 1440,642L1440 884L0 884z" fill="#2264ab"></path></g><defs><mask id="SvgjsMask1011"><rect width="1440" height="884" fill="#ffffff"></rect></mask></defs></svg>